<svg width="16" height="16" viewBox="0 0 16 16" fill="none" xmlns="http://www.w3.org/2000/svg">
<rect width="16" height="16" rx="8" fill="#F0F0F5"/>
<path d="M4.9325 6.025L3.5375 9.2125L2.1725 6.025H1.4225L3.1625 10H3.8975L5.6375 6.025H4.9325ZM9.42945 6.025V6.64C9.09195 6.205 8.55195 5.9875 7.95945 5.9875C6.81195 5.9875 5.94195 6.76 5.94195 7.9075C5.94195 9.055 6.81195 9.835 7.95945 9.835C8.52945 9.835 9.04695 9.6325 9.39195 9.22V9.535C9.39195 10.435 8.96445 10.87 8.02695 10.87C7.44195 10.87 6.86445 10.6675 6.49695 10.3525L6.15195 10.9075C6.58695 11.2975 7.32195 11.5 8.04945 11.5C9.39945 11.5 10.112 10.8625 10.112 9.46V6.025H9.42945ZM8.04195 9.205C7.23945 9.205 6.66945 8.6725 6.66945 7.9075C6.66945 7.135 7.23945 6.6175 8.04195 6.6175C8.83695 6.6175 9.40695 7.135 9.40695 7.9075C9.40695 8.6725 8.83695 9.205 8.04195 9.205ZM12.6277 10.045C13.6852 10.045 14.3452 9.5875 14.3452 8.8675C14.3452 7.3225 11.8252 8.0875 11.8252 7.15C11.8252 6.835 12.1327 6.6025 12.7627 6.6025C13.1527 6.6025 13.5502 6.685 13.9102 6.9175L14.2177 6.3475C13.8727 6.1225 13.2877 5.9875 12.7702 5.9875C11.7502 5.9875 11.1127 6.4675 11.1127 7.18C11.1127 8.7625 13.6252 7.99 13.6252 8.8825C13.6252 9.22 13.3477 9.4225 12.6802 9.4225C12.1627 9.4225 11.6227 9.25 11.2852 9.01L10.9852 9.58C11.3152 9.8425 11.9677 10.045 12.6277 10.045Z" fill="#605EFF"/>
</svg>
