<svg width="143" height="31" viewBox="0 0 143 31" fill="none" xmlns="http://www.w3.org/2000/svg">
<path d="M19.102 0.704081L11.5102 18.051L4.08163 0.704081H0L9.46939 22.3367H13.4694L22.9388 0.704081H19.102Z" fill="#605EFF"/>
<path d="M33.7956 0.5C30.3262 0.5 27.1017 1.47959 24.8568 3.27551L26.4895 6.21429C28.1629 4.78572 30.7752 3.88776 33.3466 3.88776C37.2242 3.88776 39.1425 5.80612 39.1425 9.11225V9.88776H32.9385C26.4895 9.88776 24.2446 12.7449 24.2446 16.2143C24.2446 19.9694 27.3466 22.5816 32.2446 22.5816C35.6323 22.5816 38.0405 21.4388 39.3466 19.4796V22.3367H43.0609V9.27551C43.0609 3.35714 39.714 0.5 33.7956 0.5ZM32.8976 19.5612C29.918 19.5612 28.1221 18.2143 28.1221 16.051C28.1221 14.2143 29.2242 12.7041 33.1017 12.7041H39.1425V15.7245C38.1629 18.2143 35.8364 19.5612 32.8976 19.5612Z" fill="#605EFF"/>
<path d="M58.1897 0.5C54.7203 0.5 51.4958 1.47959 49.251 3.27551L50.8836 6.21429C52.5571 4.78572 55.1693 3.88776 57.7407 3.88776C61.6183 3.88776 63.5367 5.80612 63.5367 9.11225V9.88776H57.3326C50.8836 9.88776 48.6387 12.7449 48.6387 16.2143C48.6387 19.9694 51.7407 22.5816 56.6387 22.5816C60.0265 22.5816 62.4346 21.4388 63.7407 19.4796V22.3367H67.455V9.27551C67.455 3.35714 64.1081 0.5 58.1897 0.5ZM57.2918 19.5612C54.3122 19.5612 52.5163 18.2143 52.5163 16.051C52.5163 14.2143 53.6183 12.7041 57.4958 12.7041H63.5367V15.7245C62.5571 18.2143 60.2305 19.5612 57.2918 19.5612Z" fill="#605EFF"/>
<path d="M91.8055 0.704081V4.05102C89.9687 1.68367 87.03 0.5 83.8055 0.5C77.5606 0.5 72.8259 4.70408 72.8259 10.949C72.8259 17.1939 77.5606 21.4388 83.8055 21.4388C86.9075 21.4388 89.7238 20.3367 91.6014 18.0918V19.8061C91.6014 24.7041 89.2749 27.0714 84.1728 27.0714C80.9891 27.0714 77.8463 25.9694 75.8463 24.2551L73.9687 27.2755C76.3361 29.398 80.3361 30.5 84.2953 30.5C91.6422 30.5 95.5198 27.0306 95.5198 19.398V0.704081H91.8055ZM84.2545 18.0102C79.8871 18.0102 76.7851 15.1122 76.7851 10.949C76.7851 6.7449 79.8871 3.92857 84.2545 3.92857C88.581 3.92857 91.683 6.7449 91.683 10.949C91.683 15.1122 88.581 18.0102 84.2545 18.0102Z" fill="#605EFF"/>
<path d="M110.884 0.5C107.415 0.5 104.19 1.47959 101.945 3.27551L103.578 6.21429C105.252 4.78572 107.864 3.88776 110.435 3.88776C114.313 3.88776 116.231 5.80612 116.231 9.11225V9.88776H110.027C103.578 9.88776 101.333 12.7449 101.333 16.2143C101.333 19.9694 104.435 22.5816 109.333 22.5816C112.721 22.5816 115.129 21.4388 116.435 19.4796V22.3367H120.15V9.27551C120.15 3.35714 116.803 0.5 110.884 0.5ZM109.986 19.5612C107.007 19.5612 105.211 18.2143 105.211 16.051C105.211 14.2143 106.313 12.7041 110.19 12.7041H116.231V15.7245C115.252 18.2143 112.925 19.5612 109.986 19.5612Z" fill="#605EFF"/>
<path d="M133.605 22.5816C139.36 22.5816 142.952 20.0918 142.952 16.1735C142.952 7.76531 129.238 11.9286 129.238 6.82653C129.238 5.11225 130.911 3.84694 134.34 3.84694C136.462 3.84694 138.625 4.29592 140.584 5.56122L142.258 2.45918C140.38 1.23469 137.197 0.5 134.38 0.5C128.829 0.5 125.36 3.11225 125.36 6.9898C125.36 15.602 139.033 11.398 139.033 16.2551C139.033 18.0918 137.523 19.1939 133.891 19.1939C131.074 19.1939 128.136 18.2551 126.299 16.949L124.666 20.051C126.462 21.4796 130.013 22.5816 133.605 22.5816Z" fill="#605EFF"/>
</svg>
