<svg width="131" height="28" viewBox="0 0 131 28" fill="none" xmlns="http://www.w3.org/2000/svg">
<path d="M18.242 0.389999L11.36 16.115L4.626 0.389999H0.926L9.51 20H13.136L21.72 0.389999H18.242ZM31.5617 0.204999C28.4167 0.204999 25.4937 1.093 23.4587 2.721L24.9387 5.385C26.4557 4.09 28.8237 3.276 31.1547 3.276C34.6697 3.276 36.4087 5.015 36.4087 8.012V8.715H30.7847C24.9387 8.715 22.9037 11.305 22.9037 14.45C22.9037 17.854 25.7157 20.222 30.1557 20.222C33.2267 20.222 35.4097 19.186 36.5937 17.41V20H39.9607V8.16C39.9607 2.795 36.9267 0.204999 31.5617 0.204999ZM30.7477 17.484C28.0467 17.484 26.4187 16.263 26.4187 14.302C26.4187 12.637 27.4177 11.268 30.9327 11.268H36.4087V14.006C35.5207 16.263 33.4117 17.484 30.7477 17.484ZM53.675 0.204999C50.53 0.204999 47.607 1.093 45.572 2.721L47.052 5.385C48.569 4.09 50.937 3.276 53.268 3.276C56.783 3.276 58.522 5.015 58.522 8.012V8.715H52.898C47.052 8.715 45.017 11.305 45.017 14.45C45.017 17.854 47.829 20.222 52.269 20.222C55.34 20.222 57.523 19.186 58.707 17.41V20H62.074V8.16C62.074 2.795 59.04 0.204999 53.675 0.204999ZM52.861 17.484C50.16 17.484 48.532 16.263 48.532 14.302C48.532 12.637 49.531 11.268 53.046 11.268H58.522V14.006C57.634 16.263 55.525 17.484 52.861 17.484ZM84.1477 0.389999V3.424C82.4827 1.278 79.8187 0.204999 76.8957 0.204999C71.2347 0.204999 66.9427 4.016 66.9427 9.677C66.9427 15.338 71.2347 19.186 76.8957 19.186C79.7077 19.186 82.2607 18.187 83.9627 16.152V17.706C83.9627 22.146 81.8537 24.292 77.2287 24.292C74.3427 24.292 71.4937 23.293 69.6807 21.739L67.9787 24.477C70.1247 26.401 73.7507 27.4 77.3397 27.4C83.9997 27.4 87.5147 24.255 87.5147 17.336V0.389999H84.1477ZM77.3027 16.078C73.3437 16.078 70.5317 13.451 70.5317 9.677C70.5317 5.866 73.3437 3.313 77.3027 3.313C81.2247 3.313 84.0367 5.866 84.0367 9.677C84.0367 13.451 81.2247 16.078 77.3027 16.078ZM101.443 0.204999C98.2976 0.204999 95.3746 1.093 93.3396 2.721L94.8196 5.385C96.3366 4.09 98.7046 3.276 101.036 3.276C104.551 3.276 106.29 5.015 106.29 8.012V8.715H100.666C94.8196 8.715 92.7846 11.305 92.7846 14.45C92.7846 17.854 95.5966 20.222 100.037 20.222C103.108 20.222 105.291 19.186 106.475 17.41V20H109.842V8.16C109.842 2.795 106.808 0.204999 101.443 0.204999ZM100.629 17.484C97.9276 17.484 96.2996 16.263 96.2996 14.302C96.2996 12.637 97.2986 11.268 100.814 11.268H106.29V14.006C105.402 16.263 103.293 17.484 100.629 17.484ZM122.039 20.222C127.256 20.222 130.512 17.965 130.512 14.413C130.512 6.791 118.08 10.565 118.08 5.94C118.08 4.386 119.597 3.239 122.705 3.239C124.629 3.239 126.59 3.646 128.366 4.793L129.883 1.981C128.181 0.870999 125.295 0.204999 122.742 0.204999C117.71 0.204999 114.565 2.573 114.565 6.088C114.565 13.895 126.96 10.084 126.96 14.487C126.96 16.152 125.591 17.151 122.298 17.151C119.745 17.151 117.081 16.3 115.416 15.116L113.936 17.928C115.564 19.223 118.783 20.222 122.039 20.222Z" fill="#605EFF"/>
</svg>
