<svg width="22" height="23" viewBox="0 0 22 23" fill="none" xmlns="http://www.w3.org/2000/svg">
<path d="M13 2.769C13 2.068 12.432 1.5 11.731 1.5H10.27C9.568 1.5 9 2.068 9 2.769C9 3.347 8.604 3.843 8.065 4.055C7.98 4.089 7.895 4.125 7.812 4.161C7.281 4.391 6.65 4.321 6.24 3.912C6.00204 3.67421 5.6794 3.54064 5.343 3.54064C5.0066 3.54064 4.68396 3.67421 4.446 3.912L3.412 4.946C3.17421 5.18396 3.04064 5.5066 3.04064 5.843C3.04064 6.1794 3.17421 6.50204 3.412 6.74C3.822 7.15 3.892 7.78 3.66 8.312C3.62355 8.39572 3.58854 8.48007 3.555 8.565C3.343 9.104 2.847 9.5 2.269 9.5C1.568 9.5 1 10.068 1 10.769V12.231C1 12.932 1.568 13.5 2.269 13.5C2.847 13.5 3.343 13.896 3.555 14.435C3.589 14.52 3.625 14.605 3.66 14.688C3.891 15.219 3.821 15.85 3.412 16.26C3.17421 16.498 3.04064 16.8206 3.04064 17.157C3.04064 17.4934 3.17421 17.816 3.412 18.054L4.446 19.088C4.68396 19.3258 5.0066 19.4594 5.343 19.4594C5.6794 19.4594 6.00204 19.3258 6.24 19.088C6.65 18.678 7.28 18.608 7.812 18.839C7.895 18.876 7.98 18.911 8.065 18.945C8.604 19.157 9 19.653 9 20.231C9 20.932 9.568 21.5 10.269 21.5H11.731C12.432 21.5 13 20.932 13 20.231C13 19.653 13.396 19.157 13.935 18.944C14.02 18.911 14.105 18.876 14.188 18.84C14.719 18.608 15.35 18.679 15.759 19.088C15.8768 19.2059 16.0168 19.2994 16.1708 19.3632C16.3248 19.427 16.4898 19.4599 16.6565 19.4599C16.8232 19.4599 16.9882 19.427 17.1422 19.3632C17.2962 19.2994 17.4362 19.2059 17.554 19.088L18.588 18.054C18.8258 17.816 18.9594 17.4934 18.9594 17.157C18.9594 16.8206 18.8258 16.498 18.588 16.26C18.178 15.85 18.108 15.22 18.339 14.688C18.376 14.605 18.411 14.52 18.445 14.435C18.657 13.896 19.153 13.5 19.731 13.5C20.432 13.5 21 12.932 21 12.231V10.77C21 10.069 20.432 9.501 19.731 9.501C19.153 9.501 18.657 9.105 18.444 8.566C18.4105 8.48106 18.3755 8.39671 18.339 8.313C18.109 7.782 18.179 7.151 18.588 6.741C18.8258 6.50304 18.9594 6.1804 18.9594 5.844C18.9594 5.5076 18.8258 5.18496 18.588 4.947L17.554 3.913C17.316 3.67521 16.9934 3.54164 16.657 3.54164C16.3206 3.54164 15.998 3.67521 15.76 3.913C15.35 4.323 14.72 4.393 14.188 4.162C14.1043 4.12521 14.0199 4.08987 13.935 4.056C13.396 3.843 13 3.347 13 2.77V2.769Z" stroke="#000410" stroke-opacity="0.8" stroke-width="2"/>
<path d="M15 11.5C15 12.5609 14.5786 13.5783 13.8284 14.3284C13.0783 15.0786 12.0609 15.5 11 15.5C9.93913 15.5 8.92172 15.0786 8.17157 14.3284C7.42143 13.5783 7 12.5609 7 11.5C7 10.4391 7.42143 9.42172 8.17157 8.67157C8.92172 7.92143 9.93913 7.5 11 7.5C12.0609 7.5 13.0783 7.92143 13.8284 8.67157C14.5786 9.42172 15 10.4391 15 11.5V11.5Z" stroke="#000410" stroke-opacity="0.8" stroke-width="2"/>
</svg>
